<?xml version="1.0" encoding="UTF-8" standalone="no"?>
<!DOCTYPE svg PUBLIC "-//W3C//DTD SVG 1.1//EN" "http://www.w3.org/Graphics/SVG/1.1/DTD/svg11.dtd">
<svg width="100%" height="100%" viewBox="0 0 1250 1250" version="1.1" xmlns="http://www.w3.org/2000/svg" xmlns:xlink="http://www.w3.org/1999/xlink" xml:space="preserve" xmlns:serif="http://www.serif.com/" style="fill-rule:evenodd;clip-rule:evenodd;stroke-linejoin:round;stroke-miterlimit:1.41421;">
    <g transform="matrix(0.1,0,0,-0.1,-72,1317)">
        <path d="M7838,9645C7836,9644 7792,9640 7740,9636C7688,9633 7634,9628 7620,9626C7606,9623 7575,9619 7551,9616C7513,9611 7396,9588 7338,9574C7328,9572 7312,9568 7302,9566C7153,9532 6858,9426 6595,9312C6336,9200 5980,9023 5590,8813C5549,8791 5475,8751 5425,8725C5333,8676 5257,8635 5148,8576C4580,8271 4164,8080 3795,7956C3625,7899 3386,7838 3275,7824C3253,7821 3229,7817 3222,7815C3171,7798 2830,7790 2711,7803C2462,7831 2221,7914 1995,8048C1793,8168 1522,8423 1337,8667C1278,8745 1230,8811 1230,8815C1230,8818 1225,8826 1219,8833C1205,8849 1100,9011 1100,9016C1100,9018 1088,9039 1073,9063C1046,9105 1019,9154 945,9289C919,9337 894,9369 875,9380C825,9407 803,9410 784,9389C769,9372 768,9314 775,8638C782,7941 785,6893 780,6505C779,6326 779,6325 803,6305C1152,6017 1435,5859 1775,5762C1837,5744 1867,5737 1980,5715C2192,5673 2531,5677 2785,5725C2985,5762 3291,5853 3455,5925C3472,5932 3530,5957 3585,5980C3821,6080 4135,6246 4488,6459C4594,6523 4689,6580 4698,6585C4708,6591 4870,6692 5058,6810C5246,6928 5408,7030 5417,7035C5427,7041 5498,7084 5575,7131C6120,7466 6582,7690 6964,7807C7008,7820 7056,7833 7070,7836C7084,7839 7109,7845 7125,7850C7179,7866 7389,7905 7379,7897C7377,7895 7344,7872 7305,7845C7136,7729 6946,7556 6829,7410C6635,7168 6497,6852 6464,6575C6461,6553 6457,6524 6455,6510C6449,6479 6449,6226 6455,6185C6457,6169 6462,6130 6465,6100C6500,5813 6621,5501 6823,5186C6837,5164 6833,5169 6902,5075C6994,4950 7146,4786 7280,4667C7598,4386 8046,4164 8430,4099C8672,4058 8891,4072 9185,4150C9680,4281 10340,4614 10771,4950L10856,5017L10854,4946C10845,4666 11029,4422 11370,4262C11438,4230 11581,4178 11635,4166C11791,4130 11901,4116 12030,4116C12290,4116 12511,4184 12650,4305C12707,4355 12813,4463 12847,4505C12865,4527 12890,4559 12904,4575C13022,4722 13132,4991 13154,5187C13162,5255 13163,5395 13156,5440C13153,5459 13148,5491 13146,5510C13119,5688 13042,5862 12920,6025C12722,6288 12394,6479 12063,6524C12039,6527 12001,6533 11978,6536C11919,6544 11741,6544 11650,6535C11558,6527 11414,6498 11296,6464C11248,6450 11206,6440 11205,6442C11203,6444 11212,6470 11225,6501C11255,6572 11288,6694 11298,6768C11307,6843 11307,7086 11297,7178C11279,7356 11213,7616 11125,7865C11034,8119 10955,8285 10850,8440C10513,8937 9948,9291 9195,9478C9059,9512 8995,9527 8855,9554C8844,9556 8824,9561 8810,9564C8783,9570 8744,9577 8690,9586C8671,9589 8630,9595 8600,9600C8448,9625 8244,9642 8053,9645C7937,9647 7840,9647 7838,9645ZM7953,9543C7946,9541 7932,9541 7923,9543C7913,9546 7919,9548 7935,9548C7952,9548 7959,9546 7953,9543ZM8098,9543C8088,9541 8070,9541 8058,9543C8045,9545 8053,9547 8075,9547C8097,9548 8107,9546 8098,9543ZM7747,9534C7744,9531 7735,9530 7728,9533C7720,9536 7723,9539 7734,9539C7745,9540 7751,9537 7747,9534ZM8287,9534C8284,9531 8275,9530 8268,9533C8260,9536 8263,9539 8274,9539C8285,9540 8291,9537 8287,9534ZM7647,9524C7644,9521 7635,9520 7628,9523C7620,9526 7623,9529 7634,9529C7645,9530 7651,9527 7647,9524ZM8397,9524C8394,9521 8385,9520 8378,9523C8370,9526 8373,9529 8384,9529C8395,9530 8401,9527 8397,9524ZM8487,9514C8484,9511 8475,9510 8468,9513C8460,9516 8463,9519 8474,9519C8485,9520 8491,9517 8487,9514ZM877,8843C875,8827 873,8838 873,8865C873,8893 875,8905 877,8893C879,8880 879,8858 877,8843ZM7808,8833C7798,8831 7782,8831 7773,8833C7763,8836 7771,8838 7790,8838C7809,8838 7817,8836 7808,8833ZM7883,8833C7876,8831 7864,8831 7858,8833C7851,8836 7856,8838 7870,8838C7884,8838 7889,8836 7883,8833ZM7933,8833C7926,8831 7914,8831 7908,8833C7901,8836 7906,8838 7920,8838C7934,8838 7939,8836 7933,8833ZM7547,8814C7544,8811 7535,8810 7528,8813C7520,8816 7523,8819 7534,8819C7545,8820 7551,8817 7547,8814ZM877,8788C874,8780 871,8783 871,8794C870,8805 873,8811 876,8807C879,8804 880,8795 877,8788ZM7407,8794C7404,8791 7395,8790 7388,8793C7380,8796 7383,8799 7394,8799C7405,8800 7411,8797 7407,8794ZM10411,8783C10424,8767 10423,8766 10408,8779C10398,8786 10390,8794 10390,8796C10390,8804 10398,8799 10411,8783ZM7677,8724C7674,8721 7665,8720 7658,8723C7650,8726 7653,8729 7664,8729C7675,8730 7681,8727 7677,8724ZM8147,8714C8144,8711 8135,8710 8128,8713C8120,8716 8123,8719 8134,8719C8145,8720 8151,8717 8147,8714ZM7497,8704C7494,8701 7485,8700 7478,8703C7470,8706 7473,8709 7484,8709C7495,8710 7501,8707 7497,8704ZM10641,8553C10654,8537 10653,8536 10638,8549C10628,8556 10620,8564 10620,8566C10620,8574 10628,8569 10641,8553ZM1530,8295C1560,8265 1582,8240 1579,8240C1577,8240 1550,8265 1520,8295C1490,8325 1468,8350 1471,8350C1473,8350 1500,8325 1530,8295ZM6115,8340C6112,8335 6103,8330 6097,8330C6090,8330 6091,8334 6100,8340C6119,8352 6123,8352 6115,8340ZM1671,8163C1684,8147 1683,8146 1668,8159C1658,8166 1650,8174 1650,8176C1650,8184 1658,8179 1671,8163ZM9711,8123C9724,8107 9723,8106 9708,8119C9698,8126 9690,8134 9690,8136C9690,8144 9698,8139 9711,8123ZM1731,8113C1744,8097 1743,8096 1728,8109C1718,8116 1710,8124 1710,8126C1710,8134 1718,8129 1731,8113ZM9790,8055C9803,8041 9811,8030 9808,8030C9806,8030 9793,8041 9780,8055C9767,8069 9759,8080 9762,8080C9764,8080 9777,8069 9790,8055ZM9671,8023C9684,8007 9683,8006 9668,8019C9658,8026 9650,8034 9650,8036C9650,8044 9658,8039 9671,8023ZM9820,7885C9850,7855 9872,7830 9869,7830C9867,7830 9840,7855 9810,7885C9780,7915 9758,7940 9761,7940C9763,7940 9790,7915 9820,7885ZM10001,7843C10014,7827 10013,7826 9998,7839C9988,7846 9980,7854 9980,7856C9980,7864 9988,7859 10001,7843ZM995,7700C1005,7689 1011,7680 1008,7680C1005,7680 995,7689 985,7700C975,7711 969,7720 972,7720C975,7720 985,7711 995,7700ZM3247,7714C3244,7711 3235,7710 3228,7713C3220,7716 3223,7719 3234,7719C3245,7720 3251,7717 3247,7714ZM2697,7704C2694,7701 2685,7700 2678,7703C2670,7706 2673,7709 2684,7709C2695,7710 2701,7707 2697,7704ZM8140,7623C8140,7615 8131,7623 8090,7668L8045,7715L8093,7670C8119,7646 8140,7625 8140,7623ZM3057,7694C3054,7691 3045,7690 3038,7693C3030,7696 3033,7699 3044,7699C3055,7700 3061,7697 3057,7694ZM906,7648C910,7642 909,7640 902,7644C897,7647 889,7644 887,7638C884,7630 881,7632 881,7643C880,7662 895,7666 906,7648ZM7220,7656C7220,7654 7212,7646 7203,7639C7187,7626 7186,7627 7199,7643C7212,7659 7220,7664 7220,7656ZM1145,7540C1183,7502 1212,7470 1209,7470C1207,7470 1173,7502 1135,7540C1097,7579 1068,7610 1071,7610C1073,7610 1107,7579 1145,7540ZM961,7583C974,7567 973,7566 958,7579C941,7592 936,7600 944,7600C946,7600 954,7592 961,7583ZM7150,7597C7150,7595 7140,7585 7128,7574L7105,7555L7124,7578C7142,7599 7150,7605 7150,7597ZM887,7498C884,7490 881,7493 881,7504C880,7515 883,7521 886,7517C889,7514 890,7505 887,7498ZM6990,7436C6990,7434 6982,7426 6973,7419C6957,7406 6956,7407 6969,7423C6982,7439 6990,7444 6990,7436ZM1205,7340C1215,7329 1221,7320 1218,7320C1215,7320 1205,7329 1195,7340C1185,7351 1179,7360 1182,7360C1185,7360 1195,7351 1205,7340ZM1291,7263C1304,7247 1303,7246 1288,7259C1271,7272 1266,7280 1274,7280C1276,7280 1284,7272 1291,7263ZM1351,7213C1364,7197 1363,7196 1348,7209C1338,7216 1330,7224 1330,7226C1330,7234 1338,7229 1351,7213ZM9737,7168C9734,7160 9731,7163 9731,7174C9730,7185 9733,7191 9736,7187C9739,7184 9740,7175 9737,7168ZM10377,7088C10374,7080 10371,7083 10371,7094C10370,7105 10373,7111 10376,7107C10379,7104 10380,7095 10377,7088ZM7657,7054C7654,7051 7645,7050 7638,7053C7630,7056 7633,7059 7644,7059C7655,7060 7661,7057 7657,7054ZM10277,7018C10274,7010 10271,7013 10271,7024C10270,7035 10273,7041 10276,7037C10279,7034 10280,7025 10277,7018ZM887,6998C884,6990 881,6993 881,7004C880,7015 883,7021 886,7017C889,7014 890,7005 887,6998ZM9407,6853C9404,6843 9402,6851 9402,6870C9402,6889 9404,6897 9407,6888C9409,6878 9409,6862 9407,6853ZM11207,6868C11204,6860 11201,6863 11201,6874C11200,6885 11203,6891 11206,6887C11209,6884 11210,6875 11207,6868ZM7450,6857C7450,6855 7440,6845 7428,6834L7405,6815L7424,6838C7442,6859 7450,6865 7450,6857ZM887,6788C885,6775 883,6783 883,6805C882,6827 884,6837 887,6828C889,6818 889,6800 887,6788ZM2377,6834C2374,6831 2365,6830 2358,6833C2350,6836 2353,6839 2364,6839C2375,6840 2381,6837 2377,6834ZM2663,6833C2656,6831 2644,6831 2638,6833C2631,6836 2636,6838 2650,6838C2664,6838 2669,6836 2663,6833ZM887,6708C885,6695 883,6703 883,6725C882,6747 884,6757 887,6748C889,6738 889,6720 887,6708ZM2797,6744C2794,6741 2785,6740 2778,6743C2770,6746 2773,6749 2784,6749C2795,6750 2801,6747 2797,6744ZM10140,6696C10140,6694 10132,6686 10123,6679C10107,6666 10106,6667 10119,6683C10132,6699 10140,6704 10140,6696ZM10160,6576C10160,6574 10152,6566 10143,6559C10127,6546 10126,6547 10139,6563C10152,6579 10160,6584 10160,6576ZM6557,6468C6554,6461 6552,6466 6552,6480C6552,6494 6554,6499 6557,6493C6559,6486 6559,6474 6557,6468ZM11683,6433C11676,6431 11664,6431 11658,6433C11651,6436 11656,6438 11670,6438C11684,6438 11689,6436 11683,6433ZM9783,6413C9776,6411 9764,6411 9758,6413C9751,6416 9756,6418 9770,6418C9784,6418 9789,6416 9783,6413ZM9847,6414C9844,6411 9835,6410 9828,6413C9820,6416 9823,6419 9834,6419C9845,6420 9851,6417 9847,6414ZM7880,6386C7880,6384 7872,6376 7863,6369C7847,6356 7846,6357 7859,6373C7872,6389 7880,6394 7880,6386ZM7737,6294C7734,6291 7725,6290 7718,6293C7710,6296 7713,6299 7724,6299C7735,6300 7741,6297 7737,6294ZM8991,6213C9004,6197 9003,6196 8988,6209C8978,6216 8970,6224 8970,6226C8970,6234 8978,6229 8991,6213ZM6567,6108C6564,6100 6561,6103 6561,6114C6560,6125 6563,6131 6566,6127C6569,6124 6570,6115 6567,6108ZM9020,6033C9020,6025 9011,6033 8970,6078L8925,6125L8973,6080C8999,6056 9020,6035 9020,6033ZM12745,6080C12766,6058 12782,6040 12779,6040C12776,6040 12756,6058 12735,6080C12714,6102 12698,6120 12701,6120C12704,6120 12724,6102 12745,6080ZM11683,5983C11670,5981 11648,5981 11633,5983C11617,5985 11628,5987 11655,5987C11683,5987 11695,5985 11683,5983ZM11817,5974C11814,5971 11805,5970 11798,5973C11790,5976 11793,5979 11804,5979C11815,5980 11821,5977 11817,5974ZM9877,5934C9874,5931 9865,5930 9858,5933C9850,5936 9853,5939 9864,5939C9875,5940 9881,5937 9877,5934ZM9537,5924C9534,5921 9525,5920 9518,5923C9510,5926 9513,5929 9524,5929C9535,5930 9541,5927 9537,5924ZM9957,5844C9954,5841 9945,5840 9938,5843C9930,5846 9933,5849 9944,5849C9955,5850 9961,5847 9957,5844ZM9633,5813C9626,5811 9612,5811 9603,5813C9593,5816 9599,5818 9615,5818C9632,5818 9639,5816 9633,5813ZM9693,5813C9686,5811 9672,5811 9663,5813C9653,5816 9659,5818 9675,5818C9692,5818 9699,5816 9693,5813ZM2157,5794C2154,5791 2145,5790 2138,5793C2130,5796 2133,5799 2144,5799C2155,5800 2161,5797 2157,5794ZM2367,5784C2364,5781 2355,5780 2348,5783C2340,5786 2343,5789 2354,5789C2365,5790 2371,5787 2367,5784ZM7765,5700C7798,5667 7822,5640 7819,5640C7817,5640 7788,5667 7755,5700C7722,5733 7698,5760 7701,5760C7703,5760 7732,5733 7765,5700ZM12346,5718L12375,5685L12343,5714C12312,5742 12305,5750 12313,5750C12315,5750 12329,5735 12346,5718ZM7781,5543C7794,5527 7793,5526 7778,5539C7768,5546 7760,5554 7760,5556C7760,5564 7768,5559 7781,5543ZM11413,5473C11406,5471 11394,5471 11388,5473C11381,5476 11386,5478 11400,5478C11414,5478 11419,5476 11413,5473ZM13057,5418C13054,5410 13051,5413 13051,5424C13050,5435 13053,5441 13056,5437C13059,5434 13060,5425 13057,5418ZM11457,5374C11454,5371 11445,5370 11438,5373C11430,5376 11433,5379 11444,5379C11455,5380 11461,5377 11457,5374ZM11533,5373C11526,5371 11514,5371 11508,5373C11501,5376 11506,5378 11520,5378C11534,5378 11539,5376 11533,5373ZM11931,5303C11944,5287 11943,5286 11928,5299C11911,5312 11906,5320 11914,5320C11916,5320 11924,5312 11931,5303ZM8777,5234C8774,5231 8765,5230 8758,5233C8750,5236 8753,5239 8764,5239C8775,5240 8781,5237 8777,5234ZM13057,5208C13054,5200 13051,5203 13051,5214C13050,5225 13053,5231 13056,5227C13059,5224 13060,5215 13057,5208ZM8977,5214C8974,5211 8965,5210 8958,5213C8950,5216 8953,5219 8964,5219C8975,5220 8981,5217 8977,5214ZM9427,5214C9424,5211 9415,5210 9408,5213C9400,5216 9403,5219 9414,5219C9425,5220 9431,5217 9427,5214ZM9227,5204C9224,5201 9215,5200 9208,5203C9200,5206 9203,5209 9214,5209C9225,5210 9231,5207 9227,5204ZM10880,5177C10880,5175 10863,5158 10843,5139L10805,5105L10839,5143C10872,5177 10880,5185 10880,5177ZM8627,5154C8624,5151 8615,5150 8608,5153C8600,5156 8603,5159 8614,5159C8625,5160 8631,5157 8627,5154ZM13047,5128C13044,5120 13041,5123 13041,5134C13040,5145 13043,5151 13046,5147C13049,5144 13050,5135 13047,5128ZM9547,5124C9544,5121 9535,5120 9528,5123C9520,5126 9523,5129 9534,5129C9545,5130 9551,5127 9547,5124ZM8927,5114C8924,5111 8915,5110 8908,5113C8900,5116 8903,5119 8914,5119C8925,5120 8931,5117 8927,5114ZM9083,5103C9076,5101 9064,5101 9058,5103C9051,5106 9056,5108 9070,5108C9084,5108 9089,5106 9083,5103ZM9333,5103C9326,5101 9314,5101 9308,5103C9301,5106 9306,5108 9320,5108C9334,5108 9339,5106 9333,5103ZM10770,5076C10770,5074 10762,5066 10753,5059C10737,5046 10736,5047 10749,5063C10762,5079 10770,5084 10770,5076ZM7051,5053C7064,5037 7063,5036 7048,5049C7038,5056 7030,5064 7030,5066C7030,5074 7038,5069 7051,5053ZM10967,5038C10964,5030 10961,5033 10961,5044C10960,5055 10963,5061 10966,5057C10969,5054 10970,5045 10967,5038ZM12057,5018C12054,5010 12051,5013 12051,5024C12050,5035 12053,5041 12056,5037C12059,5034 12060,5025 12057,5018ZM12350,5036C12350,5034 12342,5026 12333,5019C12317,5006 12316,5007 12329,5023C12342,5039 12350,5044 12350,5036ZM10957,4918C10955,4905 10953,4915 10953,4940C10953,4965 10955,4975 10957,4963C10959,4950 10959,4930 10957,4918ZM11487,4928C11484,4920 11481,4923 11481,4934C11480,4945 11483,4951 11486,4947C11489,4944 11490,4935 11487,4928ZM12035,4910C12038,4905 12036,4900 12031,4900C12025,4900 12020,4905 12020,4910C12020,4916 12022,4920 12024,4920C12027,4920 12032,4916 12035,4910ZM7355,4740C7365,4729 7371,4720 7368,4720C7365,4720 7355,4729 7345,4740C7335,4751 7329,4760 7332,4760C7335,4760 7345,4751 7355,4740ZM11677,4664C11674,4661 11665,4660 11658,4663C11650,4666 11653,4669 11664,4669C11675,4670 11681,4667 11677,4664ZM11893,4223C11886,4221 11874,4221 11868,4223C11861,4226 11866,4228 11880,4228C11894,4228 11899,4226 11893,4223ZM12187,4224C12184,4221 12175,4220 12168,4223C12160,4226 12163,4229 12174,4229C12185,4230 12191,4227 12187,4224ZM8843,4183C8836,4181 8824,4181 8818,4183C8811,4186 8816,4188 8830,4188C8844,4188 8849,4186 8843,4183Z" style="fill-rule:nonzero;"/>
    </g>
</svg>
